<svg xmlns="http://www.w3.org/2000/svg" version="1.1" xmlns:xlink="http://www.w3.org/1999/xlink" xmlns:svgjs="http://svgjs.dev/svgjs" width="1000" height="1000" viewBox="0 0 1000 1000"><rect width="1000" height="1000" fill="#f9e17e"></rect><g transform="matrix(0.7,0,0,0.7,149.57575757575756,349.7002667810732)"><svg viewBox="0 0 396 170" data-background-color="#f9e17e" preserveAspectRatio="xMidYMid meet" height="429" width="1000" xmlns="http://www.w3.org/2000/svg" xmlns:xlink="http://www.w3.org/1999/xlink"><g id="tight-bounds" transform="matrix(1,0,0,1,0.2400000000000091,0.0847640599985624)"><svg viewBox="0 0 395.52 169.83047188000288" height="169.83047188000288" width="395.52"><g><svg viewBox="0 0 661.3326151223762 283.96650004012304" height="169.83047188000288" width="395.52"><g transform="matrix(1,0,0,1,263.8350151223762,81.86450290544016)"><svg viewBox="0 0 397.4975999999999 120.23749422924271" height="120.23749422924271" width="397.4975999999999"><g id="textblocktransform"><svg viewBox="0 0 397.4975999999999 120.23749422924271" height="120.23749422924271" width="397.4975999999999" id="textblock"><g><rect width="397.4975999999999" height="6.945332359147724" x="0" y="85.19711978962376" fill="#454545" opacity="1" stroke-width="0" stroke="transparent" fill-opacity="1" class="rect-o-0" data-fill-palette-color="primary" rx="1%" id="o-0" data-palette-color="#454545"></rect></g><g transform="matrix(1,0,0,1,0.9887999999999693,0)"><svg viewBox="0 0 395.52 77.01544554455445" height="77.01544554455445" width="395.52"><g transform="matrix(1,0,0,1,0,0)"><svg width="395.52" viewBox="3 -35.400001525878906 181.7899932861328 35.400001525878906" height="77.01544554455445" data-palette-color="#454545"><path d="M13.6 0L4 0 4-27.35 3-32.35 4-35.35 12.05-35.35 22.15-21.75 24.55-17.6 25.05-17.6 25.05-35.35 34.5-35.35 34.5-32.35 34-27.35 34 0 26.15 0 13.6-17.6 13.1-17.6 13.1-14.6 13.6 0ZM47.4 0L38 0 40.4-8.45 40.4-14.8 44.1-16.3 50.6-35.35 63.55-35.35 71.6-12.95 75.45-5.85 75.45 0 66.6 0 64.1-8 49.55-8 47.4 0ZM56.5-27.15L52.85-15.7 61.35-15.7 57.55-27.15 56.5-27.15ZM88.95 0L79.95 0 79.95-27.35 78.95-32.4 79.95-35.4 95.95-35.4Q99.6-35.4 102.52-34.27 105.45-33.15 107.17-30.48 108.9-27.8 108.9-23.1L108.9-23.1Q108.9-18.85 107.35-16.23 105.8-13.6 103.05-12.3L103.05-12.3 103.55-11.75 108.5-5.55 111.34-3 111.34 0 100.1 0 93.1-10.65 88.95-10.65 88.95-8.05 89.45-3.05 88.95 0ZM88.45-27.4L88.95-18.5 93.85-18.5Q96.45-18.5 98-19.48 99.55-20.45 99.55-23.1L99.55-23.1Q99.55-24.95 98.8-25.88 98.05-26.8 96.72-27.1 95.4-27.4 93.65-27.4L93.65-27.4 88.45-27.4ZM121.74 0L112.34 0 114.74-8.45 114.74-14.8 118.44-16.3 124.94-35.35 137.89-35.35 145.94-12.95 149.79-5.85 149.79 0 140.94 0 138.44-8 123.89-8 121.74 0ZM130.84-27.15L127.19-15.7 135.69-15.7 131.89-27.15 130.84-27.15ZM163.89 0L154.29 0 154.29-27.35 153.29-32.35 154.29-35.35 162.34-35.35 172.44-21.75 174.84-17.6 175.34-17.6 175.34-35.35 184.79-35.35 184.79-32.35 184.29-27.35 184.29 0 176.44 0 163.89-17.6 163.39-17.6 163.39-14.6 163.89 0Z" opacity="1" transform="matrix(1,0,0,1,0,0)" fill="#454545" class="wordmark-text-0" data-fill-palette-color="primary" id="text-0"></path></svg></g></svg></g><g transform="matrix(1,0,0,1,0,100.32412639384079)"><svg viewBox="0 0 232.209792 19.913367835401917" height="19.913367835401917" width="232.209792"><g transform="matrix(1,0,0,1,0,0)"><svg width="232.209792" viewBox="5.050000190734863 -38.2599983215332 586.1300048828125 50.269996643066406" height="19.913367835401917" data-palette-color="#454545"><path d="M31.01-35.69L31.01 0 28.49 0 7.35-31.69 7.15-31.69Q7.45-26.03 7.45-23.14L7.45-23.14 7.45 0 5.05 0 5.05-35.69 7.54-35.69 28.66-4.05 28.81-4.05Q28.59-8.45 28.59-12.4L28.59-12.4 28.59-35.69 31.01-35.69ZM58.4 0L56.61 0 56-4.2 55.81-4.2Q53.81-1.64 51.69-0.57 49.58 0.49 46.7 0.49L46.7 0.49Q42.8 0.49 40.62-1.51 38.45-3.52 38.45-7.06L38.45-7.06Q38.45-10.94 41.68-13.09 44.92-15.23 51.05-15.36L51.05-15.36 56.1-15.5 56.1-17.26Q56.1-21.04 54.56-22.97 53.02-24.9 49.61-24.9L49.61-24.9Q45.92-24.9 41.97-22.85L41.97-22.85 41.06-24.95Q45.43-27 49.7-27L49.7-27Q54.07-27 56.24-24.73 58.4-22.46 58.4-17.65L58.4-17.65 58.4 0ZM46.85-1.71L46.85-1.71Q51.1-1.71 53.55-4.14 56-6.57 56-10.89L56-10.89 56-13.5 51.36-13.31Q45.77-13.04 43.39-11.56 41.01-10.08 41.01-6.96L41.01-6.96Q41.01-4.47 42.54-3.09 44.06-1.71 46.85-1.71ZM77.44-27.05L77.44-27.05Q79.12-27.05 81.05-26.71L81.05-26.71 80.59-24.39Q78.93-24.8 77.14-24.8L77.14-24.8Q73.75-24.8 71.58-21.92 69.4-19.04 69.4-14.65L69.4-14.65 69.4 0 66.99 0 66.99-26.54 69.04-26.54 69.28-21.75 69.45-21.75Q71.09-24.68 72.94-25.87 74.8-27.05 77.44-27.05ZM104.34 0L102.56 0 101.95-4.2 101.75-4.2Q99.75-1.64 97.64-0.57 95.52 0.49 92.64 0.49L92.64 0.49Q88.74 0.49 86.56-1.51 84.39-3.52 84.39-7.06L84.39-7.06Q84.39-10.94 87.63-13.09 90.86-15.23 96.99-15.36L96.99-15.36 102.04-15.5 102.04-17.26Q102.04-21.04 100.51-22.97 98.97-24.9 95.55-24.9L95.55-24.9Q91.86-24.9 87.91-22.85L87.91-22.85 87-24.95Q91.37-27 95.65-27L95.65-27Q100.02-27 102.18-24.73 104.34-22.46 104.34-17.65L104.34-17.65 104.34 0ZM92.79-1.71L92.79-1.71Q97.04-1.71 99.49-4.14 101.95-6.57 101.95-10.89L101.95-10.89 101.95-13.5 97.31-13.31Q91.72-13.04 89.34-11.56 86.96-10.08 86.96-6.96L86.96-6.96Q86.96-4.47 88.48-3.09 90.01-1.71 92.79-1.71ZM133.83 0L131.44 0 131.44-17.21Q131.44-21.22 129.75-23.03 128.07-24.85 124.53-24.85L124.53-24.85Q119.77-24.85 117.56-22.45 115.35-20.04 115.35-14.65L115.35-14.65 115.35 0 112.93 0 112.93-26.54 114.98-26.54 115.44-22.9 115.59-22.9Q118.18-27.05 124.79-27.05L124.79-27.05Q133.83-27.05 133.83-17.36L133.83-17.36 133.83 0ZM175.72-9.2L175.72-9.2Q175.72-4.74 172.43-2.12 169.15 0.49 163.71 0.49L163.71 0.49Q157.16 0.49 153.67-0.95L153.67-0.95 153.67-3.44Q157.53-1.81 163.51-1.81L163.51-1.81Q167.9-1.81 170.48-3.82 173.06-5.83 173.06-9.11L173.06-9.11Q173.06-11.13 172.2-12.46 171.35-13.79 169.42-14.89 167.49-15.99 163.75-17.26L163.75-17.26Q158.29-19.14 156.2-21.33 154.11-23.51 154.11-27.15L154.11-27.15Q154.11-31.15 157.25-33.68 160.39-36.21 165.32-36.21L165.32-36.21Q170.35-36.21 174.77-34.3L174.77-34.3 173.86-32.15Q169.42-34.01 165.37-34.01L165.37-34.01Q161.41-34.01 159.07-32.18 156.72-30.35 156.72-27.2L156.72-27.2Q156.72-25.22 157.44-23.95 158.16-22.68 159.8-21.67 161.44-20.65 165.41-19.24L165.41-19.24Q169.59-17.8 171.69-16.44 173.79-15.09 174.75-13.37 175.72-11.65 175.72-9.2ZM204.6-13.31L204.6-13.31Q204.6-6.81 201.45-3.16 198.3 0.49 192.76 0.49L192.76 0.49Q189.26 0.49 186.6-1.2 183.94-2.88 182.53-6.03 181.11-9.18 181.11-13.31L181.11-13.31Q181.11-19.8 184.26-23.43 187.41-27.05 192.9-27.05L192.9-27.05Q198.37-27.05 201.48-23.38 204.6-19.7 204.6-13.31ZM183.65-13.31L183.65-13.31Q183.65-7.84 186.05-4.77 188.46-1.71 192.85-1.71L192.85-1.71Q197.25-1.71 199.65-4.77 202.06-7.84 202.06-13.31L202.06-13.31Q202.06-18.8 199.63-21.83 197.2-24.85 192.8-24.85L192.8-24.85Q188.41-24.85 186.03-21.84 183.65-18.82 183.65-13.31ZM221.81-26.54L221.81-24.44 215.56-24.44 215.56 0 213.14 0 213.14-24.44 208.21-24.44 208.21-25.85 213.14-26.76 213.14-28.81Q213.14-33.69 214.93-35.97 216.73-38.26 220.81-38.26L220.81-38.26Q223-38.26 225.2-37.6L225.2-37.6 224.64-35.5Q222.69-36.11 220.76-36.11L220.76-36.11Q217.92-36.11 216.74-34.44 215.56-32.76 215.56-29L215.56-29 215.56-26.54 221.81-26.54ZM233.94-1.66L233.94-1.66Q236.23-1.66 237.94-2.05L237.94-2.05 237.94-0.1Q236.18 0.49 233.89 0.49L233.89 0.49Q230.37 0.49 228.7-1.39 227.03-3.27 227.03-7.3L227.03-7.3 227.03-24.44 223.1-24.44 223.1-25.85 227.03-26.95 228.25-32.96 229.49-32.96 229.49-26.54 237.28-26.54 237.28-24.44 229.49-24.44 229.49-7.64Q229.49-4.59 230.57-3.13 231.64-1.66 233.94-1.66ZM267.43 0L264.89 0 259.08-17.75Q258.52-19.56 257.64-23.05L257.64-23.05 257.49-23.05 256.98-21.24 255.88-17.7 249.98 0 247.58 0 239.99-26.54 242.58-26.54 246.83-11.16Q248.31-5.44 248.78-2.76L248.78-2.76 248.93-2.76Q250.37-8.47 251.02-10.35L251.02-10.35 256.49-26.54 258.69-26.54 263.89-10.4Q265.65-4.66 266.04-2.81L266.04-2.81 266.19-2.81Q266.38-4.39 268.14-11.3L268.14-11.3 272.19-26.54 274.63-26.54 267.43 0ZM297.73 0L295.94 0 295.33-4.2 295.14-4.2Q293.14-1.64 291.02-0.57 288.91 0.49 286.03 0.49L286.03 0.49Q282.13 0.49 279.95-1.51 277.78-3.52 277.78-7.06L277.78-7.06Q277.78-10.94 281.01-13.09 284.25-15.23 290.38-15.36L290.38-15.36 295.43-15.5 295.43-17.26Q295.43-21.04 293.89-22.97 292.36-24.9 288.94-24.9L288.94-24.9Q285.25-24.9 281.3-22.85L281.3-22.85 280.39-24.95Q284.76-27 289.04-27L289.04-27Q293.41-27 295.57-24.73 297.73-22.46 297.73-17.65L297.73-17.65 297.73 0ZM286.18-1.71L286.18-1.71Q290.43-1.71 292.88-4.14 295.33-6.57 295.33-10.89L295.33-10.89 295.33-13.5 290.7-13.31Q285.1-13.04 282.72-11.56 280.34-10.08 280.34-6.96L280.34-6.96Q280.34-4.47 281.87-3.09 283.4-1.71 286.18-1.71ZM316.77-27.05L316.77-27.05Q318.45-27.05 320.38-26.71L320.38-26.71 319.92-24.39Q318.26-24.8 316.47-24.8L316.47-24.8Q313.08-24.8 310.91-21.92 308.73-19.04 308.73-14.65L308.73-14.65 308.73 0 306.32 0 306.32-26.54 308.37-26.54 308.61-21.75 308.78-21.75Q310.42-24.68 312.27-25.87 314.13-27.05 316.77-27.05ZM336.49 0.49L336.49 0.49Q330.7 0.49 327.47-3.08 324.24-6.64 324.24-13.06L324.24-13.06Q324.24-19.41 327.36-23.23 330.49-27.05 335.78-27.05L335.78-27.05Q340.47-27.05 343.18-23.78 345.89-20.51 345.89-14.89L345.89-14.89 345.89-12.94 326.77-12.94Q326.82-7.47 329.33-4.59 331.83-1.71 336.49-1.71L336.49-1.71Q338.76-1.71 340.48-2.03 342.2-2.34 344.84-3.39L344.84-3.39 344.84-1.2Q342.59-0.22 340.69 0.13 338.79 0.49 336.49 0.49ZM335.78-24.9L335.78-24.9Q331.95-24.9 329.63-22.38 327.31-19.85 326.92-15.09L326.92-15.09 343.33-15.09Q343.33-19.7 341.32-22.3 339.32-24.9 335.78-24.9ZM393.91-18.19L393.91-18.19Q393.91-9.2 389.2-4.6 384.48 0 375.35 0L375.35 0 366.81 0 366.81-35.69 376.45-35.69Q385-35.69 389.45-31.23 393.91-26.76 393.91-18.19ZM391.2-18.09L391.2-18.09Q391.2-25.76 387.3-29.63 383.41-33.5 375.87-33.5L375.87-33.5 369.3-33.5 369.3-2.2 375.21-2.2Q391.2-2.2 391.2-18.09ZM412.22 0.49L412.22 0.49Q406.43 0.49 403.19-3.08 399.96-6.64 399.96-13.06L399.96-13.06Q399.96-19.41 403.09-23.23 406.21-27.05 411.51-27.05L411.51-27.05Q416.2-27.05 418.91-23.78 421.62-20.51 421.62-14.89L421.62-14.89 421.62-12.94 402.5-12.94Q402.55-7.47 405.05-4.59 407.55-1.71 412.22-1.71L412.22-1.71Q414.49-1.71 416.21-2.03 417.93-2.34 420.57-3.39L420.57-3.39 420.57-1.2Q418.32-0.22 416.42 0.13 414.51 0.49 412.22 0.49ZM411.51-24.9L411.51-24.9Q407.67-24.9 405.36-22.38 403.04-19.85 402.65-15.09L402.65-15.09 419.05-15.09Q419.05-19.7 417.05-22.3 415.05-24.9 411.51-24.9ZM437.19 0L434.75 0 424.49-26.54 426.98-26.54 433.84-8.5Q435.21-5.03 435.9-2.44L435.9-2.44 436.04-2.44Q437.04-5.76 438.09-8.54L438.09-8.54 444.95-26.54 447.44-26.54 437.19 0ZM462.6 0.49L462.6 0.49Q456.82 0.49 453.58-3.08 450.35-6.64 450.35-13.06L450.35-13.06Q450.35-19.41 453.47-23.23 456.6-27.05 461.89-27.05L461.89-27.05Q466.58-27.05 469.29-23.78 472-20.51 472-14.89L472-14.89 472-12.94 452.88-12.94Q452.93-7.47 455.44-4.59 457.94-1.71 462.6-1.71L462.6-1.71Q464.87-1.71 466.59-2.03 468.31-2.34 470.95-3.39L470.95-3.39 470.95-1.2Q468.71-0.22 466.8 0.13 464.9 0.49 462.6 0.49ZM461.89-24.9L461.89-24.9Q458.06-24.9 455.74-22.38 453.42-19.85 453.03-15.09L453.03-15.09 469.44-15.09Q469.44-19.7 467.44-22.3 465.43-24.9 461.89-24.9ZM481.74-37.99L481.74 0 479.32 0 479.32-37.99 481.74-37.99ZM512.57-13.31L512.57-13.31Q512.57-6.81 509.42-3.16 506.27 0.49 500.73 0.49L500.73 0.49Q497.24 0.49 494.58-1.2 491.92-2.88 490.5-6.03 489.09-9.18 489.09-13.31L489.09-13.31Q489.09-19.8 492.24-23.43 495.38-27.05 500.88-27.05L500.88-27.05Q506.35-27.05 509.46-23.38 512.57-19.7 512.57-13.31ZM491.62-13.31L491.62-13.31Q491.62-7.84 494.03-4.77 496.43-1.71 500.83-1.71L500.83-1.71Q505.22-1.71 507.63-4.77 510.03-7.84 510.03-13.31L510.03-13.31Q510.03-18.8 507.6-21.83 505.17-24.85 500.78-24.85L500.78-24.85Q496.39-24.85 494.01-21.84 491.62-18.82 491.62-13.31ZM531.27 0.49L531.27 0.49Q525.14 0.49 522.34-4.1L522.34-4.1 522.16-4.1 522.24-2.05Q522.34-0.24 522.34 1.9L522.34 1.9 522.34 12.01 519.92 12.01 519.92-26.54 521.97-26.54 522.43-22.75 522.58-22.75Q525.31-27.05 531.32-27.05L531.32-27.05Q536.69-27.05 539.51-23.52 542.33-20 542.33-13.26L542.33-13.26Q542.33-6.71 539.36-3.11 536.4 0.49 531.27 0.49ZM531.22-1.66L531.22-1.66Q535.3-1.66 537.53-4.69 539.77-7.71 539.77-13.16L539.77-13.16Q539.77-24.85 531.32-24.85L531.32-24.85Q526.68-24.85 524.51-22.3 522.34-19.75 522.34-13.99L522.34-13.99 522.34-13.21Q522.34-6.98 524.42-4.32 526.51-1.66 531.22-1.66ZM560.39 0.49L560.39 0.49Q554.61 0.49 551.37-3.08 548.14-6.64 548.14-13.06L548.14-13.06Q548.14-19.41 551.26-23.23 554.39-27.05 559.69-27.05L559.69-27.05Q564.37-27.05 567.08-23.78 569.79-20.51 569.79-14.89L569.79-14.89 569.79-12.94 550.68-12.94Q550.73-7.47 553.23-4.59 555.73-1.71 560.39-1.71L560.39-1.71Q562.66-1.71 564.39-2.03 566.11-2.34 568.74-3.39L568.74-3.39 568.74-1.2Q566.5-0.22 564.59 0.13 562.69 0.49 560.39 0.49ZM559.69-24.9L559.69-24.9Q555.85-24.9 553.53-22.38 551.21-19.85 550.82-15.09L550.82-15.09 567.23-15.09Q567.23-19.7 565.23-22.3 563.23-24.9 559.69-24.9ZM587.56-27.05L587.56-27.05Q589.25-27.05 591.18-26.71L591.18-26.71 590.71-24.39Q589.05-24.8 587.27-24.8L587.27-24.8Q583.88-24.8 581.71-21.92 579.53-19.04 579.53-14.65L579.53-14.65 579.53 0 577.12 0 577.12-26.54 579.17-26.54 579.41-21.75 579.58-21.75Q581.22-24.68 583.07-25.87 584.93-27.05 587.56-27.05Z" opacity="1" transform="matrix(1,0,0,1,0,0)" fill="#454545" class="slogan-text-1" data-fill-palette-color="secondary" id="text-1"></path></svg></g></svg></g></svg></g></svg></g><g><svg viewBox="0 0 245.65351679999995 283.96650004012304" height="283.96650004012304" width="245.65351679999995"><g><svg xmlns="http://www.w3.org/2000/svg" xmlns:xlink="http://www.w3.org/1999/xlink" version="1.1" x="0" y="0" viewBox="17.299999237060547 12.199999809265137 65.39999389648438 75.60000610351562" style="enable-background:new 0 0 100 100;" xml:space="preserve" height="283.96650004012304" width="245.65351679999995" class="icon-icon-0" data-fill-palette-color="accent" id="icon-0"><path d="M50 12.2L17.3 31.1v37.8L50 87.8l32.7-18.9V31.1L50 12.2zM32.1 37.4L50 16l17 21.4H32.1zM67.3 39.4L50 70.4l-18.2-31H67.3zM48.1 71l-27.7-4.5 9.8-25.9L48.1 71zM68.9 40.7l10.7 25.9-27.7 4.5L68.9 40.7zM69.2 37.1L52.6 16l27 15.6L69.2 37.1zM29.8 37.1l-9.4-5.5 26.8-15.5L29.8 37.1zM28.8 38.8l-9.5 25V33.3L28.8 38.8zM49 73.2v11.7L20.9 68.7 49 73.2zM51 73.2l28.1-4.5L51 84.9V73.2zM70.3 38.8l10.5-5.6v30.9L70.3 38.8z" fill="#454545" data-fill-palette-color="accent"></path></svg></g></svg></g></svg></g><defs></defs></svg><rect width="395.52" height="169.83047188000288" fill="none" stroke="none" visibility="hidden"></rect></g></svg></g></svg>